<?xml version="1.0" encoding="utf-8"?>
<svg viewBox="0 0 187.314 154.37" xmlns="http://www.w3.org/2000/svg">
  <g transform="matrix(1.333333, 0, 0, -1.333333, 72.75489, 478.243347)" id="g10">
    <g transform="matrix(0.1, 0, 0, 0.1, 11.306952, -77.054779)" id="g12">
      <path id="path4666" style="fill:#e9eef9;fill-opacity:1;fill-rule:evenodd;stroke:none" d="M 605.665 3834.442 L -163.265 3374.632 L -415.725 3518.662 L 356.185 3977.302 L 605.665 3834.442"/>
      <path id="path4668" style="fill:#fafafa;fill-opacity:1;fill-rule:evenodd;stroke:none" d="M 132.935 3817.802 L 187.395 3786.652 L 381.715 3899.352 L 325.325 3930.952 L 132.935 3817.802"/>
      <path id="path4670" style="fill:#b9b2a7;fill-opacity:1;fill-rule:evenodd;stroke:none" d="M 187.345 3786.562 L 381.735 3899.232 L 381.535 3875.022 L 187.395 3763.502 L 187.345 3786.562"/>
      <path id="path4672" style="fill:#9e9688;fill-opacity:1;fill-rule:evenodd;stroke:none" d="M 187.425 3786.492 L 132.895 3817.742 L 132.895 3794.992 L 187.425 3763.492 L 187.425 3786.492"/>
      <path id="path4674" style="fill:#9e9688;fill-opacity:1;fill-rule:nonzero;stroke:none" d="M 174.805 3817.822 L 173.305 3818.062 C 170.945 3818.892 169.725 3821.482 170.585 3823.822 L 248.685 4044.062 C 249.495 4046.392 252.025 4047.592 254.415 4046.802 C 256.775 4045.972 257.995 4043.392 257.145 4041.042 L 179.035 3820.812 C 178.385 3818.962 176.675 3817.822 174.805 3817.822"/>
      <path id="path4676" style="fill:#dad4c9;fill-opacity:1;fill-rule:evenodd;stroke:none" d="M 285.885 3710.882 L 76.685 4110.942 L 293.065 4234.872 L 502.055 3836.242 L 285.885 3710.882"/>
      <path id="path4678" style="fill:#253a74;fill-opacity:1;fill-rule:evenodd;stroke:none" d="M 289.465 3725.912 L 89.985 4107.762 L 287.985 4221.152 L 487.285 3840.662 L 289.465 3725.912"/>
      <path id="path4680" style="fill:#9e9688;fill-opacity:1;fill-rule:evenodd;stroke:none" d="M 278.965 3707.052 L 69.755 4107.122 L 76.685 4110.942 L 286.105 3711.002 L 278.965 3707.052"/>
      <path id="path4682" style="fill:#cfc9c2;fill-opacity:1;fill-rule:nonzero;stroke:none" d="M 192.965 4166.562 L 397.935 3775.662 L 389.995 3771.462 L 185.025 4162.352 L 192.965 4166.562"/>
      <path id="path4684" style="fill:#fafafa;fill-opacity:1;fill-rule:evenodd;stroke:none" d="M -108.835 3680.112 L -54.385 3648.952 L 139.925 3761.672 L 83.535 3793.262 L -108.835 3680.112"/>
      <path id="path4686" style="fill:#b9b2a7;fill-opacity:1;fill-rule:evenodd;stroke:none" d="M -54.445 3648.862 L 139.955 3761.532 L 139.755 3737.332 L -54.395 3625.822 L -54.445 3648.862"/>
      <path id="path4688" style="fill:#9e9688;fill-opacity:1;fill-rule:evenodd;stroke:none" d="M -54.355 3648.812 L -108.895 3680.052 L -108.895 3657.292 L -54.355 3625.812 L -54.355 3648.812"/>
      <path id="path4690" style="fill:#9e9688;fill-opacity:1;fill-rule:nonzero;stroke:none" d="M -66.955 3680.112 L -68.455 3680.362 C -70.815 3681.202 -72.035 3683.782 -71.175 3686.122 L 6.885 3906.372 C 7.695 3908.702 10.175 3909.962 12.625 3909.122 C 14.975 3908.292 16.195 3905.712 15.345 3903.372 L -62.725 3683.112 C -63.365 3681.262 -65.075 3680.112 -66.955 3680.112"/>
      <path id="path4692" style="fill:#dad4c9;fill-opacity:1;fill-rule:evenodd;stroke:none" d="M 44.105 3573.182 L -165.105 3973.262 L 51.275 4097.182 L 260.265 3698.552 L 44.105 3573.182"/>
      <path id="path4694" style="fill:#253a74;fill-opacity:1;fill-rule:evenodd;stroke:none" d="M 47.675 3588.222 L -151.805 3970.082 L 46.205 4083.462 L 245.505 3702.972 L 47.675 3588.222"/>
      <path id="path4696" style="fill:#9e9688;fill-opacity:1;fill-rule:evenodd;stroke:none" d="M 37.185 3569.352 L -172.025 3969.432 L -165.105 3973.252 L 44.325 3573.322 L 37.185 3569.352"/>
      <path id="path4698" style="fill:#cfc9c2;fill-opacity:1;fill-rule:nonzero;stroke:none" d="M -48.825 4028.872 L 156.145 3637.982 L 148.205 3633.782 L -56.775 4024.662 L -48.825 4028.872"/>
      <path id="path4700" style="fill:#fafafa;fill-opacity:1;fill-rule:evenodd;stroke:none" d="M -350.635 3542.432 L -296.175 3511.272 L -101.855 3623.982 L -158.245 3655.572 L -350.635 3542.432"/>
      <path id="path4702" style="fill:#b9b2a7;fill-opacity:1;fill-rule:evenodd;stroke:none" d="M -296.235 3511.182 L -101.835 3623.842 L -102.045 3599.642 L -296.175 3488.132 L -296.235 3511.182"/>
      <path id="path4704" style="fill:#9e9688;fill-opacity:1;fill-rule:evenodd;stroke:none" d="M -296.145 3511.122 L -350.675 3542.362 L -350.675 3519.612 L -296.145 3488.122 L -296.145 3511.122"/>
      <path id="path4706" style="fill:#9e9688;fill-opacity:1;fill-rule:nonzero;stroke:none" d="M -308.755 3542.442 L -310.255 3542.682 C -312.615 3543.512 -313.835 3546.102 -312.975 3548.442 L -234.875 3768.702 C -234.065 3771.032 -231.535 3772.232 -229.135 3771.442 C -226.785 3770.612 -225.565 3768.022 -226.415 3765.692 L -304.515 3545.432 C -305.165 3543.582 -306.875 3542.442 -308.755 3542.442"/>
      <path id="path4708" style="fill:#dad4c9;fill-opacity:1;fill-rule:evenodd;stroke:none" d="M -197.685 3435.502 L -406.895 3835.572 L -190.515 3959.502 L 18.485 3560.862 L -197.685 3435.502"/>
      <path id="path4710" style="fill:#253a74;fill-opacity:1;fill-rule:evenodd;stroke:none" d="M -194.105 3450.532 L -393.585 3832.382 L -195.585 3945.782 L 3.715 3565.292 L -194.105 3450.532"/>
      <path id="path4712" style="fill:#9e9688;fill-opacity:1;fill-rule:evenodd;stroke:none" d="M -204.605 3431.672 L -413.815 3831.742 L -406.895 3835.562 L -197.465 3435.632 L -204.605 3431.672"/>
      <path id="path4714" style="fill:#cfc9c2;fill-opacity:1;fill-rule:nonzero;stroke:none" d="M -290.615 3891.182 L -85.635 3500.292 L -93.575 3496.092 L -298.555 3886.982 L -290.615 3891.182"/>
    </g>
  </g>
</svg>