<?xml version="1.0" encoding="utf-8"?>
<svg viewBox="0 0 187.314 154.37" xmlns="http://www.w3.org/2000/svg">
  <defs>
    <clipPath id="clipPath714" clipPathUnits="userSpaceOnUse">
      <path id="path712" d="m 4079.02,1797.07 -270.25,156.04 v -50.73 l 226.32,-130.67 43.93,25.36"/>
    </clipPath>
    <clipPath id="clipPath724" clipPathUnits="userSpaceOnUse">
      <path id="path722" d="m 3737.64,1912.04 -43.93,-25.36 43.93,-25.37 226.33,-130.67 43.93,25.37 -270.26,156.03"/>
    </clipPath>
    <clipPath id="clipPath738" clipPathUnits="userSpaceOnUse">
      <path id="path736" d="m 4091.14,1443.8 h 52.1094 v 160.039 H 4091.14 Z"/>
    </clipPath>
  </defs>
  <g transform="matrix(1.333333, 0, 0, -1.333333, 72.75489, 478.243347)" id="g10">
    <g transform="matrix(0.1, 0, 0, 0.1, 11.306952, -77.054779)" id="g12">
      <g transform="matrix(10.000002, 0, 0, 10.000002, -681.307495, 1166.668823)" id="g-1">
        <g transform="scale(0.1)" id="g-2">
          <path id="path676" style="fill: rgb(35, 31, 32); fill-opacity: 1; fill-rule: nonzero; stroke: none;" d="M 497.655 2464.049 L 497.655 2464.895 L 497.645 2524.889 L 491.726 2523.635 C 490.627 2524.557 489.401 2525.425 488.006 2526.239 C 475.198 2533.74 454.494 2533.783 441.76 2526.325 C 439.942 2525.264 438.399 2524.107 437.099 2522.875 L 432.269 2525.211 L 432.259 2465.302 L 432.269 2465.313 C 432.153 2460.32 435.366 2455.284 441.907 2451.458 C 454.716 2443.958 475.419 2443.915 488.144 2451.373 C 494.178 2454.898 497.327 2459.473 497.623 2464.102 L 497.655 2464.049"/>
          <path id="path678" style="fill: rgb(209, 211, 212); fill-opacity: 1; fill-rule: nonzero; stroke: none;" d="M 488.144 2510.992 C 475.419 2503.534 454.716 2503.577 441.907 2511.077 C 429.099 2518.567 429.035 2530.686 441.76 2538.144 C 454.494 2545.591 475.198 2545.558 488.006 2538.058 C 500.815 2530.557 500.878 2518.439 488.144 2510.992"/>
          <path id="path680" style="fill: rgb(35, 31, 32); fill-opacity: 1; fill-rule: nonzero; stroke: none;" d="M 848.775 2259.015 L 848.775 2259.862 L 848.764 2319.856 L 842.846 2318.613 C 841.758 2319.523 840.521 2320.391 839.126 2321.216 C 826.317 2328.706 805.614 2328.749 792.88 2321.302 C 791.062 2320.231 789.519 2319.073 788.219 2317.841 L 783.389 2320.177 L 783.379 2260.28 L 783.389 2260.29 C 783.273 2255.286 786.486 2250.25 793.027 2246.425 C 805.836 2238.924 826.539 2238.882 839.274 2246.339 C 845.298 2249.865 848.447 2254.44 848.743 2259.069 L 848.775 2259.015"/>
          <path id="path682" style="fill: rgb(209, 211, 212); fill-opacity: 1; fill-rule: nonzero; stroke: none;" d="M 839.274 2305.958 C 826.539 2298.5 805.836 2298.543 793.027 2306.044 C 780.219 2313.544 780.155 2325.663 792.88 2333.11 C 805.614 2340.568 826.317 2340.525 839.126 2333.024 C 851.935 2325.524 851.998 2313.405 839.274 2305.958"/>
          <path id="path684" style="fill: rgb(241, 242, 242); fill-opacity: 1; fill-rule: nonzero; stroke: none;" d="M 971.959 2841.831 L 711.081 2994.543 C 678.954 3013.348 649.849 3015.394 628.596 3003.554 L 628.575 3003.576 L 628.089 3003.286 L 627.497 3002.933 L 427.133 2885.324 L 427.165 2885.302 C 447.963 2894.699 475.388 2891.785 505.444 2874.18 L 766.332 2721.468 C 803.099 2699.942 835.924 2661.11 857.504 2617.746 L 1063.099 2738.098 C 1041.508 2781.451 1008.736 2820.304 971.959 2841.831"/>
          <path id="path686" style="fill: rgb(230, 231, 232); fill-opacity: 1; fill-rule: nonzero; stroke: none;" d="M 1084.109 2680.976 L 1084.099 2680.987 C 1079.544 2700.188 1072.326 2719.55 1063.099 2738.098 L 857.504 2617.746 C 874.097 2584.433 884.052 2548.452 884.052 2515.588 L 884.052 2247.432 L 1089.689 2367.795 L 1089.689 2635.94 C 1089.689 2650.491 1087.723 2665.653 1084.109 2680.922 L 1084.109 2680.976"/>
          <path id="path688" style="fill: rgb(209, 211, 212); fill-opacity: 1; fill-rule: nonzero; stroke: none;" d="M 884.052 2247.432 L 387.724 2537.972 L 387.724 2806.128 C 387.724 2881.777 440.428 2912.24 505.444 2874.18 L 766.332 2721.468 C 831.348 2683.408 884.052 2591.226 884.052 2515.588 L 884.052 2247.432"/>
          <path id="path690" style="fill: rgb(65, 64, 66); fill-opacity: 1; fill-rule: nonzero; stroke: none;" d="M 551.067 2894.239 L 605.155 2925.891 L 898.435 2754.214 L 844.336 2722.561 L 551.067 2894.239"/>
          <path id="path692" style="fill: rgb(109, 110, 113); fill-opacity: 1; fill-rule: nonzero; stroke: none;" d="M 605.155 2921.412 L 558.729 2894.239 L 605.155 2867.054 L 844.347 2727.04 L 890.773 2754.224 L 605.155 2921.412"/>
          <path id="path694" style="fill: rgb(88, 89, 91); fill-opacity: 1; fill-rule: nonzero; stroke: none;" d="M 558.729 2894.239 L 605.155 2867.054 L 605.155 2921.412 Z"/>
          <path id="path696" style="fill: rgb(109, 110, 113); fill-opacity: 1; fill-rule: nonzero; stroke: none;" d="M 605.155 2921.412 L 605.155 2867.054 L 844.347 2727.04 L 890.773 2754.224 L 605.155 2921.412"/>
          <path id="path698" style="fill: rgb(109, 110, 113); fill-opacity: 1; fill-rule: nonzero; stroke: none;" d="M 680.328 2965.419 L 633.891 2938.235 L 680.328 2911.061 L 919.508 2771.047 L 965.935 2798.221 L 680.328 2965.419"/>
          <path id="path700" style="fill: rgb(65, 64, 66); fill-opacity: 1; fill-rule: nonzero; stroke: none;" d="M 626.239 2938.235 L 680.328 2969.898 L 973.597 2798.221 L 919.508 2766.557 L 626.239 2938.235"/>
          <path id="path702" style="fill: rgb(109, 110, 113); fill-opacity: 1; fill-rule: nonzero; stroke: none;" d="M 680.328 2965.419 L 633.891 2938.235 L 680.328 2911.061 L 919.508 2771.047 L 965.935 2798.221 L 680.328 2965.419"/>
          <path id="path704" style="fill: rgb(88, 89, 91); fill-opacity: 1; fill-rule: nonzero; stroke: none;" d="M 633.891 2938.235 L 680.328 2911.061 L 680.328 2965.419 Z"/>
          <path id="path706" style="fill: rgb(109, 110, 113); fill-opacity: 1; fill-rule: nonzero; stroke: none;" d="M 965.935 2798.221 L 680.328 2965.419 L 680.328 2911.061 L 919.508 2771.047 L 965.935 2798.221"/>
          <g id="g708" transform="matrix(1.056826, 0, 0, 1.07151, -3344.881592, 872.642456)" style="">
            <g clip-path="url(#clipPath714)" id="g710">
              <path id="path716" style="fill:#414042;fill-opacity:1;fill-rule:nonzero;stroke:none" d="m 4003.33,1825.27 c -4.58,2.64 -9.34,2.92 -13.06,0.77 -2.98,-1.72 -4.87,-4.81 -5.53,-8.65 l -0.31,-1.73 v -1.22 -94.58 c 0,-1.48 -0.35,-2.15 -0.4,-2.23 -0.19,-0.04 -0.97,-0.02 -2.52,0.87 -3.53,2.05 -6.68,6.79 -7.71,11.15 v 96.66 c 0,8.86 -5.8,18.88 -13.73,23.46 -4.57,2.64 -9.32,2.91 -13.04,0.76 -2.97,-1.71 -4.87,-4.81 -5.53,-8.65 l -0.32,-1.74 v -1.23 -94.56 0 c 0,-1.48 -0.35,-2.16 -0.4,-2.23 -0.15,-0.05 -0.96,-0.03 -2.52,0.87 -4.31,2.49 -8.09,9.01 -8.09,13.95 v 94.57 1.23 l -0.21,1.4 c -1,8.13 -6.37,16.69 -13.53,20.82 -4.56,2.64 -9.32,2.91 -13.04,0.76 -2.97,-1.71 -4.87,-4.81 -5.53,-8.65 l -0.31,-1.73 v -1.24 -94.56 0 c 0,-1.48 -0.36,-2.16 -0.4,-2.23 -0.17,-0.04 -0.96,-0.03 -2.52,0.87 -4.31,2.49 -8.1,9.02 -8.1,13.96 v 0 95.06 0.73 l -0.16,1.26 c -0.8,8.23 -6.35,17.29 -13.57,21.47 -4.56,2.62 -9.31,2.9 -13.04,0.75 -2.98,-1.72 -4.88,-4.82 -5.54,-8.66 l -0.31,-1.74 v -1.22 -94.57 c 0,-1.48 -0.35,-2.16 -0.39,-2.23 -0.19,-0.06 -0.98,-0.02 -2.52,0.87 -4.32,2.49 -8.1,9.01 -8.1,13.95 v 95.8 c 0,2.98 -2.42,5.4 -5.4,5.4 -2.99,0 -5.4,-2.42 -5.4,-5.4 v -95.8 c 0,-8.84 5.8,-18.86 13.71,-23.43 2.54,-1.46 5.13,-2.2 7.57,-2.2 1.96,0 3.83,0.48 5.49,1.44 3.43,1.98 5.42,5.78 5.72,10.46 l 0.12,1.12 v 0.02 94.57 c 0,1.5 0.36,2.17 0.41,2.25 0.17,0.04 0.96,0.02 2.53,-0.88 4.3,-2.49 8.08,-9.01 8.08,-13.96 v -95.06 0 c 0,-8.84 5.8,-18.86 13.72,-23.43 2.53,-1.47 5.13,-2.2 7.57,-2.2 1.96,0 3.83,0.47 5.49,1.43 3.43,1.98 5.43,5.8 5.72,10.49 l 0.11,1.07 0.01,0.04 v 0 94.56 c 0,1.5 0.35,2.18 0.4,2.25 0.16,0.07 0.97,0.02 2.53,-0.88 4.31,-2.49 8.09,-9.01 8.09,-13.96 v -94.57 c 0,-8.84 5.8,-18.86 13.71,-23.43 2.54,-1.46 5.13,-2.2 7.57,-2.2 1.97,0 3.83,0.48 5.5,1.44 3.43,1.98 5.43,5.79 5.72,10.49 l 0.11,1.07 v 0.04 0 94.56 c 0,1.49 0.36,2.18 0.4,2.25 0.17,0.05 0.96,0.02 2.54,-0.88 3.59,-2.08 6.79,-6.97 7.75,-11.4 l -0.06,-0.62 v -95.8 c 0,-8.84 5.8,-18.86 13.72,-23.43 2.54,-1.46 5.13,-2.2 7.57,-2.2 1.96,0 3.83,0.47 5.49,1.43 2.97,1.72 4.87,4.81 5.53,8.65 l 0.31,1.74 v 1.21 94.58 c 0,1.48 0.35,2.16 0.4,2.23 0.15,0.06 0.96,0.03 2.52,-0.87 4.31,-2.49 8.1,-9.01 8.1,-13.95 v -95.8 c 0,-2.98 2.41,-5.4 5.4,-5.4 2.98,0 5.4,2.42 5.4,5.4 v 95.8 c 0,8.84 -5.81,18.85 -13.72,23.42"/>
            </g>
          </g>
          <g id="g718" transform="matrix(1.056826, 0, 0, 1.07151, -3344.881592, 872.642456)" style="">
            <g clip-path="url(#clipPath724)" id="g720">
              <path id="path726" style="fill:#414042;fill-opacity:1;fill-rule:nonzero;stroke:none" d="m 3936.06,1781.34 c -4.57,2.64 -9.33,2.92 -13.05,0.77 -2.98,-1.72 -4.87,-4.81 -5.53,-8.65 l -0.31,-1.74 v -1.21 -94.58 c 0,-1.48 -0.36,-2.16 -0.4,-2.23 -0.19,-0.05 -0.97,-0.02 -2.52,0.87 -3.54,2.04 -6.68,6.78 -7.71,11.15 v 96.66 c 0,8.85 -5.8,18.87 -13.74,23.45 -4.56,2.64 -9.32,2.92 -13.03,0.77 -2.98,-1.72 -4.87,-4.81 -5.54,-8.65 l -0.31,-1.74 v -1.23 -94.57 0 c 0,-1.48 -0.35,-2.15 -0.4,-2.22 -0.16,-0.05 -0.96,-0.04 -2.52,0.87 -4.31,2.49 -8.1,9.01 -8.1,13.95 v 94.56 1.23 l -0.2,1.41 c -1,8.13 -6.37,16.68 -13.53,20.82 -4.56,2.63 -9.32,2.91 -13.04,0.76 -2.97,-1.72 -4.87,-4.81 -5.53,-8.65 l -0.31,-1.74 v -1.23 -94.56 -0.01 c 0,-1.47 -0.36,-2.15 -0.4,-2.22 -0.17,-0.05 -0.96,-0.03 -2.52,0.87 -4.32,2.49 -8.1,9.01 -8.1,13.95 v 0 95.07 0.73 l -0.16,1.25 c -0.8,8.24 -6.35,17.3 -13.58,21.47 -4.55,2.63 -9.3,2.91 -13.03,0.75 -2.98,-1.72 -4.88,-4.81 -5.54,-8.66 l -0.31,-1.73 v -1.22 -94.58 c 0,-1.48 -0.35,-2.15 -0.4,-2.23 -0.18,-0.05 -0.97,-0.02 -2.52,0.88 -4.31,2.49 -8.1,9 -8.1,13.95 v 95.79 c 0,2.99 -2.41,5.4 -5.4,5.4 -2.98,0 -5.4,-2.41 -5.4,-5.4 v -95.79 c 0,-8.85 5.81,-18.86 13.72,-23.43 2.54,-1.47 5.13,-2.2 7.57,-2.2 1.96,0 3.83,0.47 5.49,1.43 3.42,1.98 5.42,5.78 5.72,10.46 l 0.12,1.12 v 0.02 94.58 c 0,1.49 0.36,2.17 0.41,2.25 0.17,0.04 0.96,0.02 2.53,-0.88 4.3,-2.49 8.08,-9.01 8.08,-13.96 v -95.07 0 c 0,-8.84 5.8,-18.85 13.72,-23.43 2.53,-1.46 5.12,-2.2 7.56,-2.2 1.97,0 3.83,0.48 5.49,1.44 3.44,1.98 5.44,5.79 5.73,10.49 l 0.11,1.06 0.01,0.04 v 0.01 94.56 c 0,1.49 0.35,2.18 0.39,2.25 0.17,0.06 0.98,0.02 2.54,-0.89 4.3,-2.48 8.08,-9.01 8.08,-13.96 v -94.56 c 0,-8.84 5.81,-18.86 13.72,-23.43 2.54,-1.46 5.13,-2.2 7.57,-2.2 1.97,0 3.83,0.48 5.49,1.44 3.44,1.98 5.43,5.79 5.73,10.48 l 0.11,1.07 v 0.04 0 94.57 c 0,1.49 0.36,2.17 0.4,2.25 0.17,0.05 0.96,0.02 2.54,-0.89 3.59,-2.07 6.78,-6.96 7.75,-11.4 l -0.06,-0.62 v -95.79 c 0,-8.84 5.8,-18.86 13.72,-23.44 2.53,-1.46 5.12,-2.19 7.57,-2.19 1.96,0 3.83,0.47 5.49,1.43 2.97,1.72 4.87,4.81 5.53,8.65 l 0.31,1.73 v 1.22 94.58 c 0,1.48 0.35,2.16 0.4,2.23 0.15,0.05 0.95,0.03 2.52,-0.87 4.31,-2.5 8.09,-9.02 8.09,-13.96 v -95.8 c 0,-2.98 2.42,-5.39 5.4,-5.39 2.99,0 5.4,2.41 5.4,5.39 v 95.8 c 0,8.84 -5.8,18.86 -13.72,23.43"/>
            </g>
          </g>
          <path id="path728" style="fill: rgb(88, 89, 91); fill-opacity: 1; fill-rule: nonzero; stroke: none;" d="M 1015.12 2355.044 L 974.643 2331.353 C 963.462 2324.806 954.405 2330.046 954.405 2343.054 L 954.405 2559.124 C 954.405 2572.132 963.462 2587.98 974.643 2594.516 L 1015.12 2618.218 C 1026.29 2624.754 1035.358 2619.514 1035.358 2606.517 L 1035.358 2390.436 C 1035.358 2377.428 1026.29 2361.591 1015.12 2355.044"/>
          <path id="path730" style="fill: rgb(65, 64, 66); fill-opacity: 1; fill-rule: nonzero; stroke: none;" d="M 978.215 2361.141 L 978.215 2568.907 L 1011.547 2588.419 L 1011.547 2380.653 L 978.215 2361.141"/>
          <g id="g732" transform="matrix(1.056826, 0, 0, 1.07151, -3344.881592, 872.642456)" style="">
            <g clip-path="url(#clipPath738)" id="g734">
              <path id="path740" style="fill:#808285;fill-opacity:1;fill-rule:nonzero;stroke:none" d="m 4152.15,1516.31 -79.71,46.02 -3.39,-1.96 -10.75,3.65 v -9.86 l 88.8,-51.27 14.14,8.17 v 9.86 l -9.09,-4.61"/>
              <path id="path742" style="fill:#939598;fill-opacity:1;fill-rule:nonzero;stroke:none" d="m 4147.1,1512.75 -88.8,51.27 14.14,8.17 88.8,-51.27 -14.14,-8.17"/>
            </g>
          </g>
          <path id="path744" style="fill: rgb(188, 190, 192); fill-opacity: 1; fill-rule: nonzero; stroke: none;" d="M 1065.879 2507.959 L 1065.879 2523.303 L 1061.493 2522.189 C 1058.418 2526.764 1053.736 2531.05 1047.416 2534.747 L 998.665 2506.213 L 957.184 2495.658 L 957.184 2481.932 C 981.946 2467.435 1022.221 2467.51 1047.141 2482.093 C 1058.967 2489.026 1065.203 2497.973 1065.837 2507.027 L 1065.879 2507.038 L 1065.879 2507.959"/>
          <path id="path746" style="fill: rgb(209, 211, 212); fill-opacity: 1; fill-rule: nonzero; stroke: none;" d="M 1047.416 2548.484 C 1072.178 2533.986 1072.051 2510.413 1047.141 2495.83 C 1022.221 2481.246 981.946 2481.171 957.184 2495.658 L 1047.416 2548.484"/>
          <path id="path748" style="fill: rgb(167, 169, 172); fill-opacity: 1; fill-rule: nonzero; stroke: none;" d="M 538.533 2592.233 L 536.948 2592.673 L 535.479 2592.984 L 533.587 2593.262 L 532.52 2593.369 L 530.237 2593.401 L 529.709 2593.401 L 527.077 2593.048 L 526.454 2592.898 L 524.498 2592.319 L 523.896 2592.094 L 521.56 2590.958 L 521.603 2590.98 L 521.56 2590.958 L 540.826 2602.434 L 541.017 2602.552 L 542.803 2603.441 L 543.151 2603.57 L 543.754 2603.784 L 544.684 2604.127 L 545.709 2604.374 L 546.343 2604.524 L 546.681 2604.609 L 548.837 2604.867 L 548.975 2604.877 L 549.492 2604.877 L 551.194 2604.899 L 551.786 2604.845 L 552.853 2604.738 L 553.857 2604.642 L 554.745 2604.459 L 556.203 2604.149 L 556.996 2603.977 L 557.788 2603.709 L 560.314 2602.841 L 561.202 2602.531 L 561.709 2602.284 C 563.178 2601.641 564.679 2600.923 566.201 2600.045 C 568.505 2598.705 570.735 2597.109 572.922 2595.362 L 575.004 2593.53 C 576.05 2592.609 577.139 2591.751 578.154 2590.755 L 579.506 2589.298 L 580.7 2588.022 L 582.064 2586.565 C 583.057 2585.408 584.029 2584.229 584.97 2583.008 L 585.932 2581.701 L 586.428 2581.015 L 587.369 2579.75 C 588.077 2578.732 588.775 2577.693 589.44 2576.643 C 590.085 2575.636 590.698 2574.618 591.3 2573.589 L 591.448 2573.332 L 591.575 2573.086 L 592.991 2570.557 C 593.53 2569.539 594.048 2568.51 594.534 2567.482 L 595.824 2564.674 L 595.898 2564.514 L 595.972 2564.353 C 596.437 2563.281 596.88 2562.199 597.293 2561.117 C 597.726 2559.981 598.138 2558.845 598.519 2557.709 L 599.036 2556.006 L 599.269 2555.266 L 599.649 2554.034 C 600.03 2552.652 600.368 2551.27 600.664 2549.887 L 601.097 2547.391 L 601.33 2546.084 L 601.541 2544.883 C 601.858 2542.494 602.027 2540.126 602.027 2537.811 C 602.048 2526.432 598.128 2518.417 591.755 2514.624 L 572.5 2503.148 C 578.872 2506.941 582.793 2514.956 582.772 2526.336 C 582.761 2529.036 582.497 2531.811 582.074 2534.608 L 581.842 2535.915 C 581.387 2538.529 580.785 2541.155 580.003 2543.79 L 579.781 2544.53 C 578.904 2547.38 577.858 2550.241 576.632 2553.038 L 576.568 2553.198 C 575.311 2556.059 573.884 2558.877 572.32 2561.62 L 572.182 2561.845 C 570.65 2564.514 568.959 2567.085 567.173 2569.55 L 566.676 2570.225 C 565.028 2572.453 563.263 2574.554 561.435 2576.557 L 560.251 2577.822 C 558.792 2579.343 557.271 2580.715 555.728 2582.065 L 553.667 2583.886 C 551.479 2585.633 549.239 2587.24 546.935 2588.569 C 545.413 2589.448 543.923 2590.165 542.454 2590.808 L 541.048 2591.366 L 538.533 2592.233"/>
          <path id="path750" style="fill: rgb(188, 190, 192); fill-opacity: 1; fill-rule: nonzero; stroke: none;" d="M 546.935 2588.569 C 527.204 2599.991 511.225 2590.658 511.267 2567.728 C 511.32 2544.798 527.362 2516.981 547.104 2505.548 C 566.845 2494.126 582.814 2503.405 582.772 2526.336 C 582.719 2549.277 566.676 2577.136 546.935 2588.569"/>
          <path id="path752" style="fill: rgb(167, 169, 172); fill-opacity: 1; fill-rule: nonzero; stroke: none;" d="M 655.767 2524.685 L 654.182 2525.125 L 652.713 2525.436 L 650.821 2525.725 L 649.754 2525.821 L 647.471 2525.864 L 646.942 2525.853 L 644.311 2525.5 L 643.687 2525.35 L 641.722 2524.771 L 641.13 2524.557 L 638.794 2523.41 L 638.837 2523.443 L 638.794 2523.41 L 658.05 2534.886 L 658.25 2535.004 L 660.036 2535.904 L 660.385 2536.022 L 660.988 2536.247 L 661.918 2536.579 L 662.943 2536.826 L 663.577 2536.976 L 663.915 2537.061 L 666.071 2537.329 L 666.208 2537.329 L 666.726 2537.329 L 668.428 2537.361 L 669.009 2537.297 L 670.087 2537.201 L 671.091 2537.104 L 671.979 2536.911 L 673.437 2536.601 L 674.23 2536.44 L 675.022 2536.161 L 677.537 2535.293 L 678.425 2534.993 L 678.943 2534.736 C 680.412 2534.093 681.902 2533.375 683.435 2532.497 C 685.738 2531.168 687.968 2529.561 690.156 2527.814 L 692.227 2525.982 C 693.284 2525.06 694.362 2524.214 695.377 2523.207 L 696.74 2521.75 L 697.934 2520.474 L 699.298 2519.017 C 700.291 2517.871 701.263 2516.681 702.204 2515.46 L 703.166 2514.153 L 703.662 2513.477 L 704.592 2512.202 C 705.311 2511.184 705.998 2510.145 706.674 2509.095 C 707.308 2508.088 707.932 2507.07 708.534 2506.041 L 708.672 2505.784 L 708.809 2505.538 L 710.225 2503.009 C 710.754 2501.991 711.271 2500.973 711.768 2499.944 L 713.057 2497.137 L 713.131 2496.965 L 713.205 2496.805 C 713.67 2495.733 714.114 2494.651 714.526 2493.569 C 714.96 2492.444 715.372 2491.308 715.752 2490.161 L 716.27 2488.458 L 716.503 2487.718 L 716.873 2486.486 C 717.264 2485.104 717.602 2483.722 717.898 2482.339 L 718.331 2479.853 L 718.563 2478.546 L 718.775 2477.335 C 719.092 2474.946 719.261 2472.578 719.261 2470.274 C 719.282 2458.895 715.361 2450.869 708.989 2447.076 L 689.733 2435.6 C 696.106 2439.393 700.027 2447.419 700.006 2458.798 C 699.995 2461.488 699.731 2464.263 699.298 2467.07 L 699.076 2468.367 C 698.621 2470.981 698.019 2473.617 697.237 2476.242 L 697.015 2476.982 C 696.127 2479.843 695.091 2482.693 693.865 2485.5 L 693.802 2485.65 C 692.544 2488.511 691.118 2491.34 689.543 2494.072 L 689.416 2494.308 C 687.884 2496.965 686.193 2499.537 684.396 2502.002 L 683.91 2502.677 C 682.251 2504.905 680.497 2507.006 678.668 2509.009 L 677.485 2510.274 C 676.026 2511.795 674.504 2513.167 672.961 2514.517 L 670.89 2516.338 C 668.713 2518.085 666.473 2519.692 664.169 2521.021 C 662.647 2521.9 661.157 2522.617 659.677 2523.26 L 658.282 2523.818 L 655.767 2524.685"/>
          <path id="path754" style="fill: rgb(188, 190, 192); fill-opacity: 1; fill-rule: nonzero; stroke: none;" d="M 664.169 2521.021 C 644.427 2532.454 628.458 2523.121 628.501 2500.18 C 628.543 2477.25 644.596 2449.433 664.338 2438.011 C 684.069 2426.578 700.048 2435.857 700.006 2458.798 C 699.953 2481.729 683.91 2509.599 664.169 2521.021"/>
          <path id="path756" style="fill: rgb(20, 20, 20); fill-opacity: 1; fill-rule: nonzero; stroke: none;" d="M 550 2750.335 L 549.831 2653.224 L 699.509 2565.606 L 699.678 2662.717 L 550 2750.335"/>
          <path id="path758" style="fill: rgb(43, 43, 43); fill-opacity: 1; fill-rule: nonzero; stroke: none;" d="M 884.686 2249.029 L 884.052 2249.404 L 884.052 2219.487 L 884.686 2219.112 L 897.474 2226.613 L 1089.668 2339.089 L 1089.668 2369.038 L 884.686 2249.029"/>
          <path id="path760" style="fill: rgb(35, 31, 32); fill-opacity: 1; fill-rule: nonzero; stroke: none;" d="M 387.724 2539.912 L 387.724 2509.995 L 860.717 2233.128 L 884.052 2219.487 L 884.052 2249.404 L 387.724 2539.912"/>
        </g>
      </g>
    </g>
  </g>
</svg>